<svg xmlns="http://www.w3.org/2000/svg" xmlns:xlink="http://www.w3.org/1999/xlink" preserveAspectRatio="xMidYMid" width="23.938" height="16.16" viewBox="0 0 23.938 16.16">
  <defs>
    <style>
      .cls-1 {
        fill: #fff;
        fill-rule: evenodd;
      }
    </style>
  </defs>
  <path d="M9.654,7.219 C9.654,7.219 11.921,7.039 11.921,4.206 C11.921,1.375 10.066,-0.008 7.718,-0.008 L-0.011,-0.008 L-0.011,15.821 L7.718,15.821 C7.718,15.821 12.435,15.979 12.435,11.150 C12.436,11.150 12.641,7.219 9.654,7.219 ZM3.395,2.805 L7.718,2.805 C7.718,2.805 8.768,2.805 8.768,4.452 C8.768,6.099 8.150,6.338 7.448,6.338 L3.395,6.338 L3.395,2.805 ZM7.499,13.008 L3.395,13.008 L3.395,8.777 L7.718,8.777 C7.718,8.777 9.284,8.755 9.284,10.950 C9.284,12.803 8.114,12.995 7.499,13.008 ZM18.729,4.020 C13.016,4.020 13.021,10.100 13.021,10.100 C13.021,10.100 12.629,16.150 18.729,16.150 C18.729,16.150 23.811,16.461 23.811,11.940 L21.198,11.940 C21.198,11.940 21.284,13.643 18.816,13.643 C18.816,13.643 16.201,13.829 16.201,10.891 L23.898,10.891 C23.900,10.892 24.742,4.020 18.729,4.020 ZM21.053,8.779 L16.174,8.779 C16.174,8.779 16.494,6.338 18.788,6.338 C21.080,6.338 21.053,8.779 21.053,8.779 ZM21.663,0.924 L15.533,0.924 L15.533,2.873 L21.661,2.873 L21.661,0.924 L21.663,0.924 Z" class="cls-1"/>
</svg>
