<svg xmlns="http://www.w3.org/2000/svg" xmlns:xlink="http://www.w3.org/1999/xlink" preserveAspectRatio="xMidYMid" width="12.719" height="24" viewBox="0 0 12.719 24">
  <defs>
    <style>
      .cls-1 {
        fill: #fff;
        fill-rule: evenodd;
      }
    </style>
  </defs>
  <path d="M2.823,13.273 L2.823,24.010 L8.174,24.010 L8.174,13.324 L11.827,13.324 L12.710,8.869 L8.212,8.869 C8.212,8.869 8.212,6.773 8.212,5.601 C8.212,5.150 8.459,4.546 9.208,4.546 C10.361,4.546 11.808,4.546 11.808,4.546 L11.808,0.009 C11.808,0.009 9.465,0.009 6.952,0.009 C5.278,0.009 2.804,2.023 2.804,4.165 C2.804,6.369 2.804,8.743 2.804,8.743 L-0.003,8.743 L-0.003,13.253 L2.823,13.273 Z" class="cls-1"/>
</svg>
