<svg xmlns="http://www.w3.org/2000/svg" xmlns:xlink="http://www.w3.org/1999/xlink" preserveAspectRatio="xMidYMid" width="41.031" height="41.03" viewBox="0 0 41.031 41.03">
  <defs>
    <style>
      .cls-1 {
        fill: #fff;
        opacity: 0.9;
        fill-rule: evenodd;
      }
    </style>
  </defs>
  <path d="M40.275,0.761 C39.273,-0.240 37.636,-0.240 36.635,0.761 L31.418,5.983 C29.280,4.561 26.827,3.855 24.364,3.855 C21.083,3.855 17.697,5.108 15.302,7.612 L7.612,15.303 C3.225,19.685 2.685,26.460 5.980,31.432 L0.763,36.655 C-0.237,37.657 -0.237,39.279 0.763,40.280 C1.263,40.781 1.918,41.032 2.574,41.032 C3.231,41.032 3.885,40.781 4.387,40.280 L9.603,35.057 C11.741,36.480 14.210,37.186 16.673,37.186 C19.846,37.186 23.232,35.934 25.735,33.430 L33.411,25.739 C37.797,21.357 38.337,14.581 35.042,9.608 L40.274,4.386 C41.276,3.385 41.276,1.762 40.275,0.761 ZM32.039,16.675 C32.039,18.728 31.238,20.660 29.786,22.113 L22.110,29.804 C20.653,31.257 18.619,32.058 16.673,32.058 C15.512,32.058 14.401,31.773 13.380,31.287 L17.096,27.461 C18.097,26.460 18.097,24.837 17.096,23.835 C16.203,22.834 14.580,22.834 13.579,23.835 L9.755,27.662 C9.263,26.644 8.983,25.533 8.983,24.366 C8.983,22.313 9.784,20.381 11.236,18.928 L18.819,11.237 C20.271,9.784 22.311,8.983 24.364,8.983 C25.525,8.983 26.631,9.269 27.653,9.755 L23.753,13.661 C22.751,14.663 22.751,16.285 23.753,17.286 C24.253,17.788 24.908,18.038 25.565,18.038 C26.216,18.038 26.872,17.788 27.373,17.286 L31.268,13.381 C31.758,14.397 32.039,15.508 32.039,16.675 Z" class="cls-1"/>
</svg>
