<svg xmlns="http://www.w3.org/2000/svg" xmlns:xlink="http://www.w3.org/1999/xlink" preserveAspectRatio="xMidYMid" width="24" height="19.5" viewBox="0 0 24 19.5">
  <defs>
    <style>
      .cls-1 {
        fill: #fff;
        fill-rule: evenodd;
      }
    </style>
  </defs>
  <path d="M23.992,2.318 C23.109,2.709 22.160,2.974 21.164,3.093 C22.181,2.484 22.962,1.519 23.329,0.370 C22.378,0.934 21.324,1.343 20.202,1.564 C19.305,0.607 18.025,0.009 16.608,0.009 C13.889,0.009 11.684,2.213 11.684,4.932 C11.684,5.318 11.728,5.693 11.812,6.054 C7.719,5.848 4.091,3.889 1.663,0.910 C1.239,1.637 0.996,2.484 0.996,3.385 C0.996,5.093 1.866,6.600 3.187,7.483 C2.379,7.457 1.620,7.236 0.957,6.867 C0.956,6.887 0.956,6.908 0.956,6.929 C0.956,9.314 2.653,11.304 4.906,11.756 C4.493,11.869 4.058,11.929 3.609,11.929 C3.291,11.929 2.983,11.898 2.682,11.840 C3.309,13.796 5.127,15.219 7.282,15.259 C5.597,16.579 3.474,17.367 1.167,17.367 C0.769,17.367 0.377,17.343 -0.008,17.297 C2.171,18.694 4.759,19.509 7.540,19.509 C16.597,19.509 21.549,12.008 21.549,5.503 C21.549,5.289 21.545,5.077 21.535,4.866 C22.498,4.172 23.332,3.305 23.992,2.318 Z" class="cls-1"/>
</svg>
