<svg xmlns="http://www.w3.org/2000/svg" xmlns:xlink="http://www.w3.org/1999/xlink" preserveAspectRatio="xMidYMid" width="24.25" height="21.22" viewBox="0 0 24.25 21.22">
  <defs>
    <style>
      .cls-1 {
        fill: #fff;
        fill-rule: evenodd;
      }
    </style>
  </defs>
  <path d="M0.008,5.779 L0.993,7.073 C0.993,7.073 3.024,5.469 3.701,6.271 C4.378,7.073 6.963,16.759 7.826,18.545 C8.579,20.112 10.656,22.184 12.935,20.705 C15.211,19.225 22.783,12.748 24.138,5.099 C25.492,-2.547 15.027,-0.945 13.918,5.716 C16.689,4.050 18.168,6.393 16.750,9.047 C15.335,11.698 14.042,13.428 13.365,13.428 C12.689,13.428 12.169,11.654 11.394,8.553 C10.594,5.346 10.599,-0.428 7.271,0.226 C4.133,0.844 0.008,5.779 0.008,5.779 Z" class="cls-1"/>
</svg>
